<svg xmlns="http://www.w3.org/2000/svg" width="32" height="31"><path fill="#ef2929" d="m32 15.5-3.073 2.933 1.49 3.966-4.052 1.312-.389 4.216-4.224-.558-2.192 3.63-3.56-2.33-3.561 2.33-2.192-3.631-4.224.558-.389-4.216-4.052-1.312 1.491-3.966-3.072-2.933 3.073-2.933L1.584 8.6l4.052-1.312.389-4.216 4.224.558L12.441 0l3.56 2.33L19.562.001l2.192 3.63 4.224-.558.389 4.216 4.052 1.312-1.491 3.966Z"/><path fill="#fff" d="M24.509 11.155 22.571 9.23l-8.748 8.691-4.393-4.364-1.937 1.925 6.33 6.288Z"/></svg>