<svg xmlns="http://www.w3.org/2000/svg" width="40" height="40" viewBox="0 0 40 40"><path fill="#ef2929" d="M 20 7.5 C 16.608 7.5 16.182 7.515 14.848 7.575 C 13.515 7.638 12.608 7.847 11.813 8.157 C 10.978 8.47 10.222 8.963 9.598 9.598 C 8.963 10.223 8.47 10.978 8.157 11.813 C 7.847 12.607 7.636 13.515 7.575 14.844 C 7.515 16.18 7.5 16.605 7.5 20.002 C 7.5 23.395 7.515 23.82 7.575 25.153 C 7.638 26.485 7.847 27.392 8.157 28.188 C 8.477 29.01 8.903 29.707 9.598 30.402 C 10.292 31.097 10.989 31.525 11.811 31.843 C 12.608 32.153 13.514 32.364 14.845 32.425 C 16.18 32.485 16.605 32.5 20 32.5 C 23.395 32.5 23.819 32.485 25.153 32.425 C 26.483 32.363 27.394 32.153 28.189 31.843 C 29.023 31.53 29.778 31.038 30.402 30.402 C 31.097 29.707 31.523 29.01 31.843 28.188 C 32.152 27.392 32.363 26.485 32.425 25.153 C 32.485 23.82 32.5 23.395 32.5 20 C 32.5 16.605 32.485 16.18 32.425 14.845 C 32.363 13.515 32.152 12.607 31.843 11.813 C 31.53 10.978 31.038 10.223 30.402 9.598 C 29.778 8.963 29.022 8.47 28.188 8.157 C 27.39 7.847 26.482 7.636 25.152 7.575 C 23.817 7.515 23.394 7.5 19.997 7.5 L 20.002 7.5 L 20 7.5 Z M 18.88 9.753 L 20.002 9.753 C 23.339 9.753 23.735 9.764 25.052 9.825 C 26.27 9.88 26.933 10.085 27.373 10.255 C 27.957 10.482 28.373 10.753 28.811 11.19 C 29.248 11.628 29.518 12.044 29.745 12.628 C 29.917 13.067 30.12 13.73 30.175 14.948 C 30.236 16.265 30.248 16.661 30.248 19.997 C 30.248 23.333 30.236 23.73 30.175 25.047 C 30.12 26.265 29.915 26.927 29.745 27.367 C 29.545 27.91 29.225 28.4 28.81 28.803 C 28.372 29.24 27.957 29.511 27.372 29.738 C 26.935 29.91 26.272 30.113 25.052 30.168 C 23.735 30.228 23.339 30.242 20.002 30.242 C 16.664 30.242 16.267 30.228 14.95 30.168 C 13.732 30.113 13.07 29.91 12.63 29.738 C 12.088 29.538 11.595 29.219 11.192 28.803 C 10.777 28.4 10.457 27.91 10.255 27.365 C 10.085 26.927 9.88 26.264 9.825 25.045 C 9.765 23.728 9.753 23.333 9.753 19.994 C 9.753 16.657 9.765 16.263 9.825 14.945 C 9.882 13.727 10.085 13.064 10.257 12.623 C 10.483 12.04 10.755 11.623 11.192 11.186 C 11.63 10.748 12.045 10.478 12.63 10.252 C 13.07 10.08 13.732 9.877 14.95 9.82 C 16.103 9.767 16.55 9.752 18.88 9.75 L 18.88 9.753 Z M 26.673 11.828 C 25.519 11.828 24.797 13.078 25.375 14.078 C 25.642 14.542 26.138 14.828 26.673 14.828 C 27.828 14.828 28.55 13.578 27.972 12.578 C 27.705 12.114 27.21 11.828 26.673 11.828 Z M 20.002 13.582 C 15.06 13.505 11.888 18.807 14.292 23.123 C 15.442 25.19 17.636 26.458 20.002 26.42 C 24.944 26.344 27.948 20.945 25.411 16.705 C 24.27 14.797 22.223 13.615 20.002 13.582 Z M 20.002 15.833 C 23.21 15.833 25.214 19.305 23.611 22.083 C 22.865 23.373 21.49 24.167 20.002 24.167 C 16.794 24.167 14.789 20.695 16.392 17.917 C 17.138 16.627 18.513 15.833 20.002 15.833 Z"/></svg>