<svg xmlns="http://www.w3.org/2000/svg" width="40" height="40" viewBox="0 0 40 40"><path fill="#ef2929" d="M 15.725 29.345 C 24.404 29.345 29.152 22.154 29.152 15.928 C 29.152 15.727 29.152 15.522 29.144 15.321 C 30.068 14.653 30.865 13.824 31.5 12.874 C 30.636 13.256 29.722 13.507 28.784 13.619 C 29.772 13.03 30.51 12.102 30.865 11.007 C 29.938 11.557 28.922 11.943 27.864 12.147 C 25.374 9.496 20.949 10.534 19.899 14.015 C 19.661 14.806 19.634 15.646 19.821 16.451 C 16.026 16.262 12.49 14.471 10.093 11.522 C 8.843 13.679 9.485 16.435 11.557 17.821 C 10.809 17.796 10.077 17.596 9.42 17.235 L 9.42 17.299 C 9.422 19.544 11.004 21.478 13.203 21.925 C 12.799 22.037 12.38 22.093 11.96 22.091 C 11.664 22.092 11.368 22.064 11.077 22.008 C 11.695 23.931 13.468 25.245 15.486 25.282 C 13.815 26.596 11.747 27.309 9.62 27.304 C 9.246 27.306 8.873 27.284 8.5 27.24 C 10.66 28.617 13.164 29.347 15.725 29.345 Z"/></svg>