<svg xmlns="http://www.w3.org/2000/svg" width="40" height="40" viewBox="0 0 40 40"><path fill="#ef2929" d="M 20.08 11.219 L 20.22 11.219 C 21.504 11.224 28.012 11.271 29.767 11.743 C 30.847 12.037 31.689 12.88 31.978 13.962 C 32.135 14.555 32.247 15.341 32.322 16.152 L 32.337 16.315 L 32.372 16.721 L 32.384 16.884 C 32.485 18.312 32.498 19.649 32.5 19.942 L 32.5 20.059 C 32.498 20.362 32.484 21.79 32.372 23.277 L 32.359 23.442 L 32.345 23.604 C 32.267 24.498 32.151 25.386 31.978 26.039 C 31.691 27.12 30.848 27.966 29.767 28.258 C 27.954 28.745 21.065 28.779 20.11 28.781 L 19.889 28.781 C 19.405 28.781 17.408 28.772 15.315 28.7 L 15.049 28.691 L 14.912 28.685 L 14.646 28.673 L 14.378 28.663 C 12.644 28.586 10.993 28.463 10.231 28.256 C 9.153 27.964 8.309 27.118 8.021 26.039 C 7.847 25.387 7.731 24.498 7.653 23.604 L 7.641 23.44 L 7.628 23.277 C 7.552 22.218 7.509 21.158 7.5 20.096 L 7.5 19.904 C 7.503 19.568 7.516 18.406 7.6 17.125 L 7.611 16.965 L 7.616 16.884 L 7.628 16.721 L 7.662 16.315 L 7.678 16.152 C 7.753 15.341 7.865 14.553 8.022 13.962 C 8.311 12.88 9.153 12.035 10.233 11.743 C 10.994 11.54 12.646 11.415 14.38 11.337 L 14.646 11.325 L 14.915 11.316 L 15.049 11.312 L 15.316 11.3 C 16.804 11.252 18.292 11.225 19.779 11.221 L 20.08 11.221 L 20.08 11.219 Z M 17.501 16.235 L 17.501 23.764 L 23.996 20.001 L 17.501 16.235 Z"/></svg>