<svg xmlns="http://www.w3.org/2000/svg" width="50" height="48"><path fill="#ef2929" d="m50 24-4.8 4.542 2.329 6.141-6.332 2.031-.608 6.528-6.6-.864-3.425 5.621-5.563-3.607-5.564 3.607-3.426-5.622-6.6.863-.608-6.528-6.331-2.031 2.329-6.141-4.8-4.541 4.8-4.542-2.329-6.141 6.332-2.031.608-6.528 6.6.864L19.437 0 25 3.607 30.564 0l3.426 5.621 6.6-.863.608 6.528 6.331 2.031-2.329 6.141Z"/><path fill="#fff" d="M23.246 31.998H13V21.991a9.6 9.6 0 0 1 .481-3.056 7.752 7.752 0 0 1 1.41-2.552 6.494 6.494 0 0 1 2.338-1.746 7.86 7.86 0 0 1 3.267-.638 6.7 6.7 0 0 1 1.341.135q.652.136 1.2.269v.739a5.267 5.267 0 0 0-4.47 5.239 5.568 5.568 0 0 0 .069.806 3.357 3.357 0 0 0 .206.806h4.4Zm13.754 0H26.754V21.991a9.6 9.6 0 0 1 .481-3.056 7.742 7.742 0 0 1 1.41-2.552 6.49 6.49 0 0 1 2.338-1.746 7.858 7.858 0 0 1 3.266-.638 6.688 6.688 0 0 1 1.341.135q.653.136 1.2.269v.739a5.266 5.266 0 0 0-4.469 5.239 5.634 5.634 0 0 0 .069.806 3.382 3.382 0 0 0 .206.806h4.4Z"/></svg>