<svg xmlns="http://www.w3.org/2000/svg" width="192.76" height="26">
    <path fill="#efb700" d="m23.4 25.994-2.973-1.762q-2.889-1.714-5.774-3.432a.429.429 0 0 0-.519-.006Q9.9 23.322 5.65 25.833L5.368 26l.478-1.784q1.049-3.859 2.1-7.715c.051-.185-.025-.269-.155-.373Q3.98 13.094.169 10.056c-.048-.039-.094-.08-.169-.144a8.613 8.613 0 0 1 1.194-.1c2.136-.138 4.273-.264 6.41-.393.89-.054 1.78-.114 2.671-.158.18-.009.206-.114.254-.228l2.286-5.386L14.363 0c.116.032.112.135.143.209Q16.373 4.6 18.23 9a.387.387 0 0 0 .4.271c2.193.125 4.386.266 6.579.4q1.462.09 2.924.177c.206.012.411.027.625.042-.027.12-.131.157-.2.216q-3.78 3.011-7.567 6.015a.344.344 0 0 0-.147.422q1.262 4.6 2.508 9.2c.02.074.031.15.053.254"/>
    <path fill="#efb700" d="m64.4 25.994-2.973-1.762q-2.889-1.714-5.774-3.432a.429.429 0 0 0-.519-.006q-4.234 2.528-8.484 5.039l-.282.167.478-1.784q1.049-3.859 2.1-7.715c.051-.185-.025-.269-.155-.373q-3.811-3.034-7.622-6.072c-.048-.039-.094-.08-.169-.144a8.613 8.613 0 0 1 1.194-.1c2.136-.138 4.273-.264 6.41-.393.89-.054 1.78-.114 2.671-.158.18-.009.206-.114.254-.228l2.286-5.386L55.363 0c.116.032.112.135.143.209Q57.373 4.6 59.23 9a.387.387 0 0 0 .4.271c2.193.125 4.386.266 6.579.4q1.462.09 2.924.177c.206.012.411.027.625.042-.027.12-.131.157-.2.216q-3.78 3.011-7.567 6.015a.344.344 0 0 0-.147.422q1.262 4.6 2.508 9.2c.02.074.031.15.053.254M105.4 25.994l-2.973-1.762q-2.889-1.714-5.774-3.432a.429.429 0 0 0-.519-.006q-4.234 2.528-8.484 5.039l-.282.167.478-1.784q1.049-3.859 2.1-7.715c.051-.185-.025-.269-.155-.373q-3.811-3.034-7.622-6.072c-.048-.039-.094-.08-.169-.144a8.613 8.613 0 0 1 1.194-.1c2.136-.138 4.273-.264 6.41-.393.89-.054 1.78-.114 2.671-.158.18-.009.206-.114.254-.228l2.286-5.386L96.363 0c.116.032.112.135.143.209Q98.373 4.6 100.23 9a.387.387 0 0 0 .4.271c2.193.125 4.386.266 6.579.4q1.462.09 2.924.177c.206.012.411.027.625.042-.027.12-.131.157-.2.216q-3.78 3.011-7.567 6.015a.344.344 0 0 0-.147.422q1.262 4.6 2.508 9.2c.02.074.031.15.053.254M146.4 25.994l-2.973-1.762q-2.889-1.714-5.774-3.432a.429.429 0 0 0-.519-.006q-4.234 2.528-8.484 5.039l-.282.167.478-1.784q1.049-3.859 2.1-7.715c.051-.185-.025-.269-.155-.373q-3.811-3.034-7.622-6.072c-.048-.039-.094-.08-.169-.144a8.613 8.613 0 0 1 1.194-.1c2.136-.138 4.273-.264 6.41-.393.89-.054 1.78-.114 2.671-.158.18-.009.206-.114.254-.228l2.286-5.386L137.363 0c.116.032.112.135.143.209Q139.373 4.6 141.23 9a.387.387 0 0 0 .4.271c2.193.125 4.386.266 6.579.4q1.462.09 2.924.177c.206.012.411.027.625.042-.027.12-.131.157-.2.216q-3.78 3.011-7.567 6.015a.344.344 0 0 0-.147.422q1.262 4.6 2.508 9.2c.02.074.031.15.053.254M187.4 25.994l-2.973-1.762q-2.889-1.714-5.774-3.432a.429.429 0 0 0-.519-.006q-4.234 2.528-8.484 5.039l-.282.167.478-1.784q1.049-3.859 2.1-7.715c.051-.185-.025-.269-.155-.373q-3.811-3.034-7.622-6.072c-.048-.039-.094-.08-.169-.144a8.613 8.613 0 0 1 1.194-.1c2.136-.138 4.273-.264 6.41-.393.89-.054 1.78-.114 2.671-.158.18-.009.206-.114.254-.228l2.286-5.386L178.363 0c.116.032.112.135.143.209Q180.373 4.6 182.23 9a.387.387 0 0 0 .4.271c2.193.125 4.386.266 6.579.4q1.462.09 2.924.177c.206.012.411.027.625.042-.027.12-.131.157-.2.216q-3.78 3.011-7.567 6.015a.344.344 0 0 0-.147.422q1.262 4.6 2.508 9.2c.02.074.031.15.053.254"/>
</svg>