<svg xmlns="http://www.w3.org/2000/svg" width="22" height="22">
    <path fill="#000000" d="M0 17.446c.052-.047.106-.092.156-.142Q6.692 10.773 13.22 4.238c.131-.131.2-.148.338-.006q2.1 2.121 4.224 4.225c.129.128.117.186 0 .307Q11.233 15.299 4.7 21.841c-.05.05-.095.1-.142.156H.167c-.133 0-.163-.03-.163-.163.006-1.464 0-2.928 0-4.391"/>
    <path fill="#000000" d="m14.89 2.571 1.19-1.189c.321-.32.639-.643.962-.961a1.217 1.217 0 0 1 1.84 0q1.349 1.34 2.689 2.689a1.219 1.219 0 0 1 0 1.855c-.674.678-1.352 1.352-2.027 2.029-.069.07-.109.121-.21.02-1.474-1.48-2.953-2.956-4.442-4.443"/>
</svg>