<svg width="112" height="20" viewBox="0 0 112 20" fill="none" xmlns="http://www.w3.org/2000/svg">
<path fill-rule="evenodd" clip-rule="evenodd" d="M112 0H13.8427L0 10L13.8427 20H112L96.2697 10L112 0Z" fill="#940000"/>
<path d="M23.84 6.08V13H22.93V7.84L20.63 13H19.99L17.68 7.83V13H16.77V6.08H17.75L20.31 11.8L22.87 6.08H23.84ZM28.5433 13.07C27.8966 13.07 27.3066 12.92 26.7733 12.62C26.2399 12.3133 25.8166 11.89 25.5033 11.35C25.1966 10.8033 25.0433 10.19 25.0433 9.51C25.0433 8.83 25.1966 8.22 25.5033 7.68C25.8166 7.13333 26.2399 6.71 26.7733 6.41C27.3066 6.10333 27.8966 5.95 28.5433 5.95C29.1966 5.95 29.7899 6.10333 30.3233 6.41C30.8566 6.71 31.2766 7.13 31.5833 7.67C31.8899 8.21 32.0433 8.82333 32.0433 9.51C32.0433 10.1967 31.8899 10.81 31.5833 11.35C31.2766 11.89 30.8566 12.3133 30.3233 12.62C29.7899 12.92 29.1966 13.07 28.5433 13.07ZM28.5433 12.28C29.0299 12.28 29.4666 12.1667 29.8533 11.94C30.2466 11.7133 30.5533 11.39 30.7733 10.97C30.9999 10.55 31.1133 10.0633 31.1133 9.51C31.1133 8.95 30.9999 8.46333 30.7733 8.05C30.5533 7.63 30.2499 7.30667 29.8633 7.08C29.4766 6.85333 29.0366 6.74 28.5433 6.74C28.0499 6.74 27.6099 6.85333 27.2233 7.08C26.8366 7.30667 26.5299 7.63 26.3033 8.05C26.0833 8.46333 25.9733 8.95 25.9733 9.51C25.9733 10.0633 26.0833 10.55 26.3033 10.97C26.5299 11.39 26.8366 11.7133 27.2233 11.94C27.6166 12.1667 28.0566 12.28 28.5433 12.28ZM35.4546 13.07C34.9946 13.07 34.5813 12.99 34.2146 12.83C33.8546 12.6633 33.5713 12.4367 33.3646 12.15C33.1579 11.8567 33.0513 11.52 33.0446 11.14H34.0146C34.0479 11.4667 34.1813 11.7433 34.4146 11.97C34.6546 12.19 35.0013 12.3 35.4546 12.3C35.8879 12.3 36.2279 12.1933 36.4746 11.98C36.7279 11.76 36.8546 11.48 36.8546 11.14C36.8546 10.8733 36.7813 10.6567 36.6346 10.49C36.4879 10.3233 36.3046 10.1967 36.0846 10.11C35.8646 10.0233 35.5679 9.93 35.1946 9.83C34.7346 9.71 34.3646 9.59 34.0846 9.47C33.8113 9.35 33.5746 9.16333 33.3746 8.91C33.1813 8.65 33.0846 8.30333 33.0846 7.87C33.0846 7.49 33.1813 7.15333 33.3746 6.86C33.5679 6.56667 33.8379 6.34 34.1846 6.18C34.5379 6.02 34.9413 5.94 35.3946 5.94C36.0479 5.94 36.5813 6.10333 36.9946 6.43C37.4146 6.75667 37.6513 7.19 37.7046 7.73H36.7046C36.6713 7.46333 36.5313 7.23 36.2846 7.03C36.0379 6.82333 35.7113 6.72 35.3046 6.72C34.9246 6.72 34.6146 6.82 34.3746 7.02C34.1346 7.21333 34.0146 7.48667 34.0146 7.84C34.0146 8.09333 34.0846 8.3 34.2246 8.46C34.3713 8.62 34.5479 8.74333 34.7546 8.83C34.9679 8.91 35.2646 9.00333 35.6446 9.11C36.1046 9.23667 36.4746 9.36333 36.7546 9.49C37.0346 9.61 37.2746 9.8 37.4746 10.06C37.6746 10.3133 37.7746 10.66 37.7746 11.1C37.7746 11.44 37.6846 11.76 37.5046 12.06C37.3246 12.36 37.0579 12.6033 36.7046 12.79C36.3513 12.9767 35.9346 13.07 35.4546 13.07ZM43.4038 6.03V6.77H41.5038V13H40.5938V6.77H38.6838V6.03H43.4038ZM51.8499 8.07C51.8499 8.65 51.6499 9.13333 51.2499 9.52C50.8566 9.9 50.2533 10.09 49.4399 10.09H48.0999V13H47.1899V6.03H49.4399C50.2266 6.03 50.8233 6.22 51.2299 6.6C51.6433 6.98 51.8499 7.47 51.8499 8.07ZM49.4399 9.34C49.9466 9.34 50.3199 9.23 50.5599 9.01C50.7999 8.79 50.9199 8.47667 50.9199 8.07C50.9199 7.21 50.4266 6.78 49.4399 6.78H48.0999V9.34H49.4399ZM56.1409 13.07C55.4943 13.07 54.9043 12.92 54.3709 12.62C53.8376 12.3133 53.4143 11.89 53.1009 11.35C52.7943 10.8033 52.6409 10.19 52.6409 9.51C52.6409 8.83 52.7943 8.22 53.1009 7.68C53.4143 7.13333 53.8376 6.71 54.3709 6.41C54.9043 6.10333 55.4943 5.95 56.1409 5.95C56.7943 5.95 57.3876 6.10333 57.9209 6.41C58.4543 6.71 58.8743 7.13 59.1809 7.67C59.4876 8.21 59.6409 8.82333 59.6409 9.51C59.6409 10.1967 59.4876 10.81 59.1809 11.35C58.8743 11.89 58.4543 12.3133 57.9209 12.62C57.3876 12.92 56.7943 13.07 56.1409 13.07ZM56.1409 12.28C56.6276 12.28 57.0643 12.1667 57.4509 11.94C57.8443 11.7133 58.1509 11.39 58.3709 10.97C58.5976 10.55 58.7109 10.0633 58.7109 9.51C58.7109 8.95 58.5976 8.46333 58.3709 8.05C58.1509 7.63 57.8476 7.30667 57.4609 7.08C57.0743 6.85333 56.6343 6.74 56.1409 6.74C55.6476 6.74 55.2076 6.85333 54.8209 7.08C54.4343 7.30667 54.1276 7.63 53.9009 8.05C53.6809 8.46333 53.5709 8.95 53.5709 9.51C53.5709 10.0633 53.6809 10.55 53.9009 10.97C54.1276 11.39 54.4343 11.7133 54.8209 11.94C55.2143 12.1667 55.6543 12.28 56.1409 12.28ZM65.5023 8.07C65.5023 8.65 65.3023 9.13333 64.9023 9.52C64.5089 9.9 63.9056 10.09 63.0923 10.09H61.7523V13H60.8423V6.03H63.0923C63.8789 6.03 64.4756 6.22 64.8823 6.6C65.2956 6.98 65.5023 7.47 65.5023 8.07ZM63.0923 9.34C63.5989 9.34 63.9723 9.23 64.2123 9.01C64.4523 8.79 64.5723 8.47667 64.5723 8.07C64.5723 7.21 64.0789 6.78 63.0923 6.78H61.7523V9.34H63.0923ZM67.5233 6.03V10.44C67.5233 11.06 67.6733 11.52 67.9733 11.82C68.2799 12.12 68.7033 12.27 69.2433 12.27C69.7766 12.27 70.1933 12.12 70.4933 11.82C70.7999 11.52 70.9533 11.06 70.9533 10.44V6.03H71.8633V10.43C71.8633 11.01 71.7466 11.5 71.5133 11.9C71.2799 12.2933 70.9633 12.5867 70.5633 12.78C70.1699 12.9733 69.7266 13.07 69.2333 13.07C68.7399 13.07 68.2933 12.9733 67.8933 12.78C67.4999 12.5867 67.1866 12.2933 66.9533 11.9C66.7266 11.5 66.6133 11.01 66.6133 10.43V6.03H67.5233ZM74.2913 12.26H76.7313V13H73.3813V6.03H74.2913V12.26ZM81.8177 11.45H78.7777L78.2177 13H77.2577L79.7777 6.07H80.8277L83.3377 13H82.3777L81.8177 11.45ZM81.5577 10.71L80.2977 7.19L79.0377 10.71H81.5577ZM88.106 13L86.446 10.15H85.346V13H84.436V6.03H86.686C87.2127 6.03 87.656 6.12 88.016 6.3C88.3827 6.48 88.656 6.72333 88.836 7.03C89.016 7.33667 89.106 7.68667 89.106 8.08C89.106 8.56 88.966 8.98333 88.686 9.35C88.4127 9.71667 87.9993 9.96 87.446 10.08L89.196 13H88.106ZM85.346 9.42H86.686C87.1793 9.42 87.5493 9.3 87.796 9.06C88.0427 8.81333 88.166 8.48667 88.166 8.08C88.166 7.66667 88.0427 7.34667 87.796 7.12C87.556 6.89333 87.186 6.78 86.686 6.78H85.346V9.42Z" fill="white"/>
</svg>
