<svg xmlns="http://www.w3.org/2000/svg" viewBox="0 0 40 40" width="40" height="40"><path fill="#ef2929" d="M 14.909 16.264 L 14.909 29.5 L 11.289 29.5 L 11.289 16.264 L 14.909 16.264 M 15.2 12.615 C 15.2 13.801 14.244 14.758 13.086 14.758 C 11.927 14.758 11 13.801 11 12.615 C 11 11.456 11.927 10.5 13.086 10.5 C 14.251 10.508 15.194 11.45 15.2 12.615 M 29.334 21.362 L 29.334 29.5 L 25.713 29.5 L 25.713 22.751 C 25.713 18.697 20.905 19.016 20.905 22.751 L 20.905 29.5 L 17.315 29.5 L 17.315 16.264 L 20.905 16.264 L 20.905 18.406 C 22.586 15.279 29.334 15.048 29.334 21.362"/></svg>