<svg xmlns="http://www.w3.org/2000/svg" width="40" height="40" viewBox="0 0 40 40"><path fill="#ef2929" d="M 21.56 7.6 L 24.651 7.6 C 24.877 8.716 25.494 10.125 26.578 11.522 C 27.641 12.894 29.045 13.846 30.923 13.846 L 30.923 16.97 C 28.19 16.97 26.135 15.698 24.683 14.114 L 24.683 24.78 C 24.683 30.79 18.179 34.548 12.977 31.542 C 7.776 28.537 7.776 21.021 12.977 18.017 C 14.165 17.331 15.511 16.97 16.879 16.97 L 16.879 20.094 C 13.275 20.094 11.021 23.998 12.825 27.122 C 14.627 30.246 19.131 30.246 20.935 27.122 C 21.345 26.41 21.56 25.601 21.56 24.78 L 21.56 7.6 Z" style=""/></svg>