<svg xmlns="http://www.w3.org/2000/svg" xml:space="preserve" viewBox="0 0 228.79 39.03"><path d="M45.52 9.48h4.7v17h8.71v4.34H45.52V9.48zM63.27 8.94c1.45 0 2.62 1.18 2.62 2.62s-1.18 2.62-2.62 2.62c-1.45 0-2.62-1.18-2.62-2.62s1.18-2.62 2.62-2.62zm-2.26 7.24h4.52v14.65h-4.52V16.18zM76.39 15.81c4.52 0 8.14 3.01 8.14 7.69 0 4.67-3.62 7.69-8.14 7.69-4.52 0-8.14-3.01-8.14-7.69 0-4.67 3.62-7.69 8.14-7.69zm0 11.4c2.26 0 3.62-1.51 3.62-3.71s-1.36-3.71-3.62-3.71-3.62 1.51-3.62 3.71 1.36 3.71 3.62 3.71zM87.18 16.18h4.34v1.99h.06c.6-1.15 2.08-2.35 4.28-2.35 4.58 0 5.43 3.01 5.43 6.93v8.08h-4.52v-7.17c0-1.69-.03-3.86-2.35-3.86-2.35 0-2.71 1.84-2.71 3.74v7.3h-4.52V16.18zM112.78 20.49c-.66-.81-1.54-1.24-2.62-1.24-.75 0-1.66.33-1.66 1.21 0 2.17 7.63.33 7.63 5.91 0 3.74-3.62 4.82-6.75 4.82-2.05 0-4.31-.51-5.76-1.99l2.74-3.04c.84 1.02 1.84 1.6 3.2 1.6 1.02 0 2.05-.27 2.05-1.06 0-2.35-7.63-.36-7.63-5.94 0-3.44 3.08-4.94 6.15-4.94 1.93 0 4.07.48 5.43 1.93l-2.78 2.74zM119.02 9.48h7.93c4.43 0 8.11 1.42 8.11 6.48 0 5-3.41 6.54-7.9 6.54h-3.44v8.32h-4.7V9.48zm4.7 9.05h3.14c1.66 0 3.32-.57 3.32-2.56 0-2.2-2.23-2.5-4.04-2.5h-2.41v5.06zM137.44 16.18h4.52v2.35h.06c.96-1.78 2.23-2.71 4.22-2.71.51 0 1.09.03 1.51.15v4.13c-.63-.18-1.27-.3-1.93-.3-3.44 0-3.86 1.99-3.86 4.91v6.12h-4.52V16.18zM152.03 8.94c1.45 0 2.62 1.18 2.62 2.62s-1.18 2.62-2.62 2.62c-1.45 0-2.62-1.18-2.62-2.62s1.18-2.62 2.62-2.62zm-2.26 7.24h4.52v14.65h-4.52V16.18zM172.93 30.83h-4.16V28.9h-.06c-.69 1.06-2.44 2.29-4.49 2.29-4.34 0-7.21-3.14-7.21-7.57 0-4.07 2.53-7.81 6.69-7.81 1.87 0 3.62.51 4.64 1.93h.06v-9.7h4.52v22.79zm-7.78-11.04c-2.26 0-3.62 1.51-3.62 3.71s1.36 3.71 3.62 3.71 3.62-1.51 3.62-3.71-1.36-3.71-3.62-3.71zM190.41 28.29c-1.45 1.84-3.83 2.89-6.18 2.89-4.52 0-8.14-3.01-8.14-7.69 0-4.67 3.62-7.69 8.14-7.69 4.22 0 6.87 3.01 6.87 7.69v1.42h-10.49c.36 1.72 1.66 2.83 3.41 2.83 1.48 0 2.47-.75 3.23-1.78l3.16 2.33zm-3.82-6.45c.03-1.51-1.15-2.77-2.77-2.77-1.99 0-3.08 1.36-3.2 2.77h5.97z" fill="#fff"/><path d="M194.43 9.48h8.26c4.37 0 8.05 1.51 8.05 6.48 0 2.98-1.6 5.31-4.61 5.85l5.43 9.01h-5.64l-4.46-8.53h-2.32v8.53h-4.7V9.48zm4.7 8.84h2.77c1.72 0 3.95-.06 3.95-2.38 0-2.14-1.93-2.47-3.65-2.47h-3.08v4.85z" fill="#ef2929"/><path d="m217.34 22.99-4.88-6.81h5.34l2.59 3.98 2.5-3.98h5.03l-4.76 6.81 5.64 7.84h-5.34l-3.2-4.88-3.44 4.88h-5.28l5.8-7.84z" fill="#ef2929"/><path d="M32.93 5.92A24.44 24.44 0 0 0 16.94 0C10.84 0 5.25 2.23.95 5.92A28.16 28.16 0 0 0 0 13.2c0 11.56 6.97 21.5 16.94 25.83 9.97-4.33 16.94-14.27 16.94-25.83.01-2.52-.33-4.96-.95-7.28z" style="fill-rule:evenodd;clip-rule:evenodd;" fill="#ef2929"/><path d="M20.03 18.97c-.33-4.82 1.05-4.64 5.07-5.42-.11 3.26-3.93 1.53-5.07 5.42m-6.18 0c.33-4.82-1.05-4.64-5.07-5.42.12 3.26 3.94 1.53 5.07 5.42zm3.09 14.64c-.31 0-.62-.13-1.24-.39-3.82-1.61-.08-4.16 1.24-4.28 1.32.12 5.06 2.67 1.24 4.28-.61.26-.93.39-1.24.39zm0-8.95c.71-.04 1.46-.31 2.32-.68 1-.44 1.49.05 1.26.48-.24.46-1.02.48-1.5.66-1.56.6-2.45 2.61-.85 3.21 2.39.91 4.11 1.01 5.77-1.05 1.39-1.72 1.58-3.59.73-6.07-.38-1.11.88-2.19 1.69-3.1 1.83-1.89 2.04-3.73.65-5.51-.9-1.15-2.04-1.49-2.79-2.89-.45-.83-.61-1.64-1.32-2.55-1.45-1.84-4.09-2.47-5.97-.68-1.88-1.79-4.52-1.16-5.97.68-.71.91-.87 1.72-1.32 2.55-.75 1.39-1.89 1.74-2.79 2.89-1.39 1.79-1.17 3.62.65 5.51.81.91 2.07 1.99 1.69 3.1-.85 2.48-.66 4.34.73 6.07 1.66 2.06 3.38 1.96 5.77 1.05 1.59-.61.71-2.62-.85-3.21-.48-.18-1.26-.2-1.5-.66-.22-.43.26-.92 1.26-.48.88.38 1.63.64 2.34.68z" style="fill-rule:evenodd;clip-rule:evenodd;" fill="#fff"/></svg>