<svg id="LOGO" xmlns="http://www.w3.org/2000/svg" width="228.8" height="39.03" viewBox="0 0 228.8 39.03">
  <path id="Path_1" data-name="Path 1" d="M45.52,9.48h4.7v17h8.71v4.34H45.52Zm17.75-.54a2.62,2.62,0,1,1-2.62,2.62A2.623,2.623,0,0,1,63.27,8.94Zm-2.26,7.24h4.52V30.83H61.01V16.18Zm15.38-.37c4.52,0,8.14,3.01,8.14,7.69s-3.62,7.69-8.14,7.69-8.14-3.01-8.14-7.69,3.62-7.69,8.14-7.69Zm0,11.4a3.431,3.431,0,0,0,3.62-3.71,3.621,3.621,0,1,0-7.24,0A3.431,3.431,0,0,0,76.39,27.21ZM87.18,16.18h4.34v1.99h.06a4.737,4.737,0,0,1,4.28-2.35c4.58,0,5.43,3.01,5.43,6.93v8.08H96.77V23.66c0-1.69-.03-3.86-2.35-3.86-2.35,0-2.71,1.84-2.71,3.74v7.3H87.19V16.18Zm25.6,4.31a3.242,3.242,0,0,0-2.62-1.24c-.75,0-1.66.33-1.66,1.21,0,2.17,7.63.33,7.63,5.91,0,3.74-3.62,4.82-6.75,4.82a8.061,8.061,0,0,1-5.76-1.99l2.74-3.04a3.941,3.941,0,0,0,3.2,1.6c1.02,0,2.05-.27,2.05-1.06,0-2.35-7.63-.36-7.63-5.94,0-3.44,3.08-4.94,6.15-4.94a7.4,7.4,0,0,1,5.43,1.93l-2.78,2.74Zm6.24-11.01h7.93c4.43,0,8.11,1.42,8.11,6.48,0,5-3.41,6.54-7.9,6.54h-3.44v8.32h-4.7Zm4.7,9.05h3.14c1.66,0,3.32-.57,3.32-2.56,0-2.2-2.23-2.5-4.04-2.5h-2.41v5.06Zm13.72-2.35h4.52v2.35h.06a4.466,4.466,0,0,1,4.22-2.71,6,6,0,0,1,1.51.15V20.1a7,7,0,0,0-1.93-.3c-3.44,0-3.86,1.99-3.86,4.91v6.12h-4.52Zm14.59-7.24a2.62,2.62,0,1,1-2.62,2.62A2.623,2.623,0,0,1,152.03,8.94Zm-2.26,7.24h4.52V30.83h-4.52Zm23.16,14.65h-4.16V28.9h-.06a5.656,5.656,0,0,1-4.49,2.29c-4.34,0-7.21-3.14-7.21-7.57,0-4.07,2.53-7.81,6.69-7.81a5.442,5.442,0,0,1,4.64,1.93h.06V8.04h4.52V30.83Zm-7.78-11.04a3.431,3.431,0,0,0-3.62,3.71,3.621,3.621,0,1,0,7.24,0A3.431,3.431,0,0,0,165.15,19.79Zm25.26,8.5a7.959,7.959,0,0,1-6.18,2.89c-4.52,0-8.14-3.01-8.14-7.69s3.62-7.69,8.14-7.69c4.22,0,6.87,3.01,6.87,7.69v1.42H180.61a3.375,3.375,0,0,0,3.41,2.83,3.86,3.86,0,0,0,3.23-1.78l3.16,2.33Zm-3.82-6.45a2.708,2.708,0,0,0-2.77-2.77,3.023,3.023,0,0,0-3.2,2.77Z" fill="#fff"/>
  <path id="Path_2" data-name="Path 2" d="M194.43,9.48h8.26c4.37,0,8.05,1.51,8.05,6.48,0,2.98-1.6,5.31-4.61,5.85l5.43,9.01h-5.64l-4.46-8.53h-2.32v8.53h-4.7V9.48Zm4.7,8.84h2.77c1.72,0,3.95-.06,3.95-2.38,0-2.14-1.93-2.47-3.65-2.47h-3.08v4.85Z" fill="#ef2929"/>
  <path id="Path_3" data-name="Path 3" d="M217.34,22.99l-4.88-6.81h5.34l2.59,3.98,2.5-3.98h5.03l-4.76,6.81,5.64,7.84h-5.34l-3.2-4.88-3.44,4.88h-5.28l5.8-7.84Z" fill="#ef2929"/>
  <path id="Path_4" data-name="Path 4" d="M32.93,5.92a24.555,24.555,0,0,0-31.98,0A28.2,28.2,0,0,0,16.94,39.03,28.156,28.156,0,0,0,33.88,13.2a27.735,27.735,0,0,0-.95-7.28Z" fill="#ef2929" fill-rule="evenodd"/>
  <path id="Path_5" data-name="Path 5" d="M20.03,18.97c-.33-4.82,1.05-4.64,5.07-5.42-.11,3.26-3.93,1.53-5.07,5.42m-6.18,0c.33-4.82-1.05-4.64-5.07-5.42C8.9,16.81,12.72,15.08,13.85,18.97Zm3.09,14.64a3.5,3.5,0,0,1-1.24-.39c-3.82-1.61-.08-4.16,1.24-4.28,1.32.12,5.06,2.67,1.24,4.28A3.439,3.439,0,0,1,16.94,33.61Zm0-8.95a7.112,7.112,0,0,0,2.32-.68c1-.44,1.49.05,1.26.48-.24.46-1.02.48-1.5.66-1.56.6-2.45,2.61-.85,3.21,2.39.91,4.11,1.01,5.77-1.05,1.39-1.72,1.58-3.59.73-6.07-.38-1.11.88-2.19,1.69-3.1,1.83-1.89,2.04-3.73.65-5.51-.9-1.15-2.04-1.49-2.79-2.89A14.159,14.159,0,0,0,22.9,7.16a3.978,3.978,0,0,0-5.97-.68,3.978,3.978,0,0,0-5.97.68A14.159,14.159,0,0,0,9.64,9.71c-.75,1.39-1.89,1.74-2.79,2.89-1.39,1.79-1.17,3.62.65,5.51.81.91,2.07,1.99,1.69,3.1-.85,2.48-.66,4.34.73,6.07,1.66,2.06,3.38,1.96,5.77,1.05,1.59-.61.71-2.62-.85-3.21-.48-.18-1.26-.2-1.5-.66-.22-.43.26-.92,1.26-.48a7.1,7.1,0,0,0,2.34.68Z" fill="#fff" fill-rule="evenodd"/>
</svg>
