<svg xmlns="http://www.w3.org/2000/svg" width="247" height="42.135" viewBox="0 0 247 42.135">
  <g id="LOGO" transform="translate(0 0)">
    <path id="Path_1" data-name="Path 1" d="M45.52,9.595h5.074V27.947H60v4.685H45.52Zm19.162-.583a2.828,2.828,0,1,1-2.828,2.828A2.831,2.831,0,0,1,64.682,9.012Zm-2.44,7.816h4.88V32.643h-4.88V16.828Zm16.6-.4c4.88,0,8.787,3.249,8.787,8.3s-3.908,8.3-8.787,8.3-8.788-3.249-8.788-8.3,3.908-8.3,8.788-8.3Zm0,12.307a3.7,3.7,0,0,0,3.908-4.005,3.909,3.909,0,1,0-7.816,0A3.7,3.7,0,0,0,78.846,28.735ZM90.494,16.828h4.685v2.148h.065a5.114,5.114,0,0,1,4.62-2.537c4.944,0,5.862,3.249,5.862,7.481v8.723h-4.88V24.9c0-1.824-.032-4.167-2.537-4.167-2.537,0-2.926,1.986-2.926,4.037v7.881H90.5V16.828ZM118.13,21.48a3.5,3.5,0,0,0-2.828-1.339c-.81,0-1.792.356-1.792,1.306,0,2.343,8.237.356,8.237,6.38,0,4.038-3.908,5.2-7.287,5.2a8.7,8.7,0,0,1-6.218-2.148L111.2,27.6a4.255,4.255,0,0,0,3.455,1.727c1.1,0,2.213-.291,2.213-1.144,0-2.537-8.237-.389-8.237-6.413,0-3.714,3.325-5.333,6.639-5.333a7.989,7.989,0,0,1,5.862,2.084Zm6.736-11.886h8.561c4.782,0,8.755,1.533,8.755,7,0,5.4-3.681,7.06-8.528,7.06H129.94v8.982h-5.074Zm5.074,9.77h3.39c1.792,0,3.584-.615,3.584-2.764,0-2.375-2.407-2.7-4.361-2.7h-2.6v5.463Zm14.811-2.537h4.88v2.537h.065a4.821,4.821,0,0,1,4.556-2.926,6.474,6.474,0,0,1,1.63.162v4.459a7.56,7.56,0,0,0-2.084-.324c-3.714,0-4.167,2.148-4.167,5.3v6.607h-4.88ZM160.5,9.012a2.828,2.828,0,1,1-2.828,2.828A2.831,2.831,0,0,1,160.5,9.012Zm-2.44,7.816h4.88V32.643h-4.88Zm25,15.815h-4.491V30.559h-.065a6.106,6.106,0,0,1-4.847,2.472c-4.685,0-7.784-3.39-7.784-8.172,0-4.394,2.731-8.431,7.222-8.431,2.019,0,3.908.551,5.009,2.084h.065V8.04h4.88v24.6Zm-8.4-11.918a3.7,3.7,0,0,0-3.908,4.005,3.909,3.909,0,1,0,7.816,0A3.7,3.7,0,0,0,174.666,20.725ZM201.935,29.9a8.593,8.593,0,0,1-6.672,3.12c-4.88,0-8.788-3.249-8.788-8.3s3.908-8.3,8.788-8.3c4.556,0,7.416,3.249,7.416,8.3v1.533H191.356a3.643,3.643,0,0,0,3.681,3.055,4.167,4.167,0,0,0,3.487-1.922Zm-4.124-6.963a2.923,2.923,0,0,0-2.99-2.99,3.263,3.263,0,0,0-3.455,2.99Z" transform="translate(3.621 0.64)"/>
    <path id="Path_2" data-name="Path 2" d="M194.43,9.48h8.917c4.718,0,8.69,1.63,8.69,7,0,3.217-1.727,5.732-4.977,6.315l5.862,9.727h-6.089l-4.815-9.209h-2.5v9.209h-5.074V9.48Zm5.074,9.543h2.99c1.857,0,4.264-.065,4.264-2.569,0-2.31-2.084-2.666-3.94-2.666h-3.325v5.236Z" transform="translate(15.466 0.754)" fill="#ef2929"/>
    <path id="Path_3" data-name="Path 3" d="M217.8,23.532l-5.268-7.352H218.3l2.8,4.3,2.7-4.3h5.43l-5.139,7.352L230.173,32h-5.765l-3.455-5.268L217.24,32h-5.7Z" transform="translate(16.827 1.287)" fill="#ef2929"/>
    <path id="Path_4" data-name="Path 4" d="M35.549,6.391a26.508,26.508,0,0,0-34.524,0A30.44,30.44,0,0,0,18.288,42.135,30.4,30.4,0,0,0,36.575,14.25a29.941,29.941,0,0,0-1.026-7.859Z" transform="translate(0 0)" fill="#ef2929" fill-rule="evenodd"/>
    <path id="Path_5" data-name="Path 5" d="M21.15,20.048c-.356-5.2,1.134-5.009,5.473-5.851-.119,3.519-4.243,1.652-5.473,5.851m-6.672,0c.356-5.2-1.134-5.009-5.473-5.851C9.135,17.716,13.259,15.849,14.478,20.048Zm3.336,15.8a3.775,3.775,0,0,1-1.339-.421c-4.124-1.738-.086-4.491,1.339-4.62,1.425.13,5.462,2.882,1.339,4.62A3.713,3.713,0,0,1,17.814,35.853Zm0-9.662a7.677,7.677,0,0,0,2.5-.734c1.08-.475,1.609.054,1.36.518-.259.5-1.1.518-1.619.712-1.684.648-2.645,2.818-.918,3.465,2.58.982,4.437,1.09,6.229-1.134,1.5-1.857,1.706-3.876.788-6.553-.41-1.2.95-2.364,1.824-3.347,1.976-2.04,2.2-4.027.7-5.948-.972-1.241-2.2-1.609-3.012-3.12A15.286,15.286,0,0,0,24.248,7.3c-1.565-1.986-4.415-2.666-6.445-.734-2.03-1.932-4.88-1.252-6.445.734a15.285,15.285,0,0,0-1.425,2.753c-.81,1.5-2.04,1.878-3.012,3.12-1.5,1.932-1.263,3.908.7,5.948.874.982,2.235,2.148,1.824,3.347-.918,2.677-.712,4.685.788,6.553,1.792,2.224,3.649,2.116,6.229,1.134,1.716-.659.766-2.828-.918-3.465-.518-.194-1.36-.216-1.619-.712-.238-.464.281-.993,1.36-.518a7.666,7.666,0,0,0,2.526.734Z" transform="translate(0.473 0.431)" fill="#fff" fill-rule="evenodd"/>
  </g>
</svg>
